<svg width="1512" height="828" viewBox="0 0 1512 828" fill="none" xmlns="http://www.w3.org/2000/svg">
<ellipse cx="14.2639" cy="157.091" rx="10.3943" ry="10.0912" fill="#EDEEFF"/>
<ellipse cx="51.0895" cy="157.091" rx="10.3943" ry="10.0912" fill="#EDEEFF"/>
<ellipse cx="86.7271" cy="157.091" rx="10.3943" ry="10.0912" fill="#EDEEFF"/>
<ellipse cx="14.2639" cy="186.5" rx="10.3943" ry="10.0912" fill="#EDEEFF"/>
<ellipse cx="51.0895" cy="186.5" rx="10.3943" ry="10.0912" fill="#EDEEFF"/>
<ellipse cx="86.7271" cy="186.5" rx="10.3943" ry="10.0912" fill="#EDEEFF"/>
<ellipse cx="14.2639" cy="215.909" rx="10.3943" ry="10.0912" fill="#EDEEFF"/>
<ellipse cx="51.0895" cy="215.909" rx="10.3943" ry="10.0912" fill="#EDEEFF"/>
<ellipse cx="86.7271" cy="215.909" rx="10.3943" ry="10.0912" fill="#EDEEFF"/>
<g filter="url(#filter0_d_16_203)">
<rect x="157" y="317" width="1198.96" height="363" rx="60" fill="white" shape-rendering="crispEdges"/>
<path d="M294.924 614L289.38 604.208H287.004V614H281.964V588.872H291.396C293.34 588.872 294.996 589.22 296.364 589.916C297.732 590.588 298.752 591.512 299.424 592.688C300.12 593.84 300.468 595.136 300.468 596.576C300.468 598.232 299.988 599.732 299.028 601.076C298.068 602.396 296.64 603.308 294.744 603.812L300.756 614H294.924ZM287.004 600.428H291.216C292.584 600.428 293.604 600.104 294.276 599.456C294.948 598.784 295.284 597.86 295.284 596.684C295.284 595.532 294.948 594.644 294.276 594.02C293.604 593.372 292.584 593.048 291.216 593.048H287.004V600.428ZM323.567 603.596C323.567 604.316 323.519 604.964 323.423 605.54H308.843C308.963 606.98 309.467 608.108 310.355 608.924C311.243 609.74 312.335 610.148 313.631 610.148C315.503 610.148 316.835 609.344 317.627 607.736H323.063C322.487 609.656 321.383 611.24 319.751 612.488C318.119 613.712 316.115 614.324 313.739 614.324C311.819 614.324 310.091 613.904 308.555 613.064C307.043 612.2 305.855 610.988 304.991 609.428C304.151 607.868 303.731 606.068 303.731 604.028C303.731 601.964 304.151 600.152 304.991 598.592C305.831 597.032 307.007 595.832 308.519 594.992C310.031 594.152 311.771 593.732 313.739 593.732C315.635 593.732 317.327 594.14 318.815 594.956C320.327 595.772 321.491 596.936 322.307 598.448C323.147 599.936 323.567 601.652 323.567 603.596ZM318.347 602.156C318.323 600.86 317.855 599.828 316.943 599.06C316.031 598.268 314.915 597.872 313.595 597.872C312.347 597.872 311.291 598.256 310.427 599.024C309.587 599.768 309.071 600.812 308.879 602.156H318.347ZM334.877 614.324C333.245 614.324 331.781 614.036 330.485 613.46C329.189 612.86 328.157 612.056 327.389 611.048C326.645 610.04 326.237 608.924 326.165 607.7H331.241C331.337 608.468 331.709 609.104 332.357 609.608C333.029 610.112 333.857 610.364 334.841 610.364C335.801 610.364 336.545 610.172 337.073 609.788C337.625 609.404 337.901 608.912 337.901 608.312C337.901 607.664 337.565 607.184 336.893 606.872C336.245 606.536 335.201 606.176 333.761 605.792C332.273 605.432 331.049 605.06 330.089 604.676C329.153 604.292 328.337 603.704 327.641 602.912C326.969 602.12 326.633 601.052 326.633 599.708C326.633 598.604 326.945 597.596 327.569 596.684C328.217 595.772 329.129 595.052 330.305 594.524C331.505 593.996 332.909 593.732 334.517 593.732C336.893 593.732 338.789 594.332 340.205 595.532C341.621 596.708 342.401 598.304 342.545 600.32H337.721C337.649 599.528 337.313 598.904 336.713 598.448C336.137 597.968 335.357 597.728 334.373 597.728C333.461 597.728 332.753 597.896 332.249 598.232C331.769 598.568 331.529 599.036 331.529 599.636C331.529 600.308 331.865 600.824 332.537 601.184C333.209 601.52 334.253 601.868 335.669 602.228C337.109 602.588 338.297 602.96 339.233 603.344C340.169 603.728 340.973 604.328 341.645 605.144C342.341 605.936 342.701 606.992 342.725 608.312C342.725 609.464 342.401 610.496 341.753 611.408C341.129 612.32 340.217 613.04 339.017 613.568C337.841 614.072 336.461 614.324 334.877 614.324ZM351.903 596.936C352.551 596.024 353.439 595.268 354.567 594.668C355.719 594.044 357.027 593.732 358.491 593.732C360.195 593.732 361.731 594.152 363.099 594.992C364.491 595.832 365.583 597.032 366.375 598.592C367.191 600.128 367.599 601.916 367.599 603.956C367.599 605.996 367.191 607.808 366.375 609.392C365.583 610.952 364.491 612.164 363.099 613.028C361.731 613.892 360.195 614.324 358.491 614.324C357.027 614.324 355.731 614.024 354.603 613.424C353.499 612.824 352.599 612.068 351.903 611.156V623.504H346.863V594.056H351.903V596.936ZM362.451 603.956C362.451 602.756 362.199 601.724 361.695 600.86C361.215 599.972 360.567 599.3 359.751 598.844C358.959 598.388 358.095 598.16 357.159 598.16C356.247 598.16 355.383 598.4 354.567 598.88C353.775 599.336 353.127 600.008 352.623 600.896C352.143 601.784 351.903 602.828 351.903 604.028C351.903 605.228 352.143 606.272 352.623 607.16C353.127 608.048 353.775 608.732 354.567 609.212C355.383 609.668 356.247 609.896 357.159 609.896C358.095 609.896 358.959 609.656 359.751 609.176C360.567 608.696 361.215 608.012 361.695 607.124C362.199 606.236 362.451 605.18 362.451 603.956ZM380.117 614.324C378.197 614.324 376.469 613.904 374.933 613.064C373.397 612.2 372.185 610.988 371.297 609.428C370.433 607.868 370.001 606.068 370.001 604.028C370.001 601.988 370.445 600.188 371.333 598.628C372.245 597.068 373.481 595.868 375.041 595.028C376.601 594.164 378.341 593.732 380.261 593.732C382.181 593.732 383.921 594.164 385.481 595.028C387.041 595.868 388.265 597.068 389.153 598.628C390.065 600.188 390.521 601.988 390.521 604.028C390.521 606.068 390.053 607.868 389.117 609.428C388.205 610.988 386.957 612.2 385.373 613.064C383.813 613.904 382.061 614.324 380.117 614.324ZM380.117 609.932C381.029 609.932 381.881 609.716 382.673 609.284C383.489 608.828 384.137 608.156 384.617 607.268C385.097 606.38 385.337 605.3 385.337 604.028C385.337 602.132 384.833 600.68 383.825 599.672C382.841 598.64 381.629 598.124 380.189 598.124C378.749 598.124 377.537 598.64 376.553 599.672C375.593 600.68 375.113 602.132 375.113 604.028C375.113 605.924 375.581 607.388 376.517 608.42C377.477 609.428 378.677 609.932 380.117 609.932ZM405.27 593.768C407.646 593.768 409.566 594.524 411.03 596.036C412.494 597.524 413.226 599.612 413.226 602.3V614H408.186V602.984C408.186 601.4 407.79 600.188 406.998 599.348C406.206 598.484 405.126 598.052 403.758 598.052C402.366 598.052 401.262 598.484 400.446 599.348C399.654 600.188 399.258 601.4 399.258 602.984V614H394.218V594.056H399.258V596.54C399.93 595.676 400.782 595.004 401.814 594.524C402.87 594.02 404.022 593.768 405.27 593.768ZM425.651 614.324C424.019 614.324 422.555 614.036 421.259 613.46C419.963 612.86 418.931 612.056 418.163 611.048C417.419 610.04 417.011 608.924 416.939 607.7H422.015C422.111 608.468 422.483 609.104 423.131 609.608C423.803 610.112 424.631 610.364 425.615 610.364C426.575 610.364 427.319 610.172 427.847 609.788C428.399 609.404 428.675 608.912 428.675 608.312C428.675 607.664 428.339 607.184 427.667 606.872C427.019 606.536 425.975 606.176 424.535 605.792C423.047 605.432 421.823 605.06 420.863 604.676C419.927 604.292 419.111 603.704 418.415 602.912C417.743 602.12 417.407 601.052 417.407 599.708C417.407 598.604 417.719 597.596 418.343 596.684C418.991 595.772 419.903 595.052 421.079 594.524C422.279 593.996 423.683 593.732 425.291 593.732C427.667 593.732 429.563 594.332 430.979 595.532C432.395 596.708 433.175 598.304 433.319 600.32H428.495C428.423 599.528 428.087 598.904 427.487 598.448C426.911 597.968 426.131 597.728 425.147 597.728C424.235 597.728 423.527 597.896 423.023 598.232C422.543 598.568 422.303 599.036 422.303 599.636C422.303 600.308 422.639 600.824 423.311 601.184C423.983 601.52 425.027 601.868 426.443 602.228C427.883 602.588 429.071 602.96 430.007 603.344C430.943 603.728 431.747 604.328 432.419 605.144C433.115 605.936 433.475 606.992 433.499 608.312C433.499 609.464 433.175 610.496 432.527 611.408C431.903 612.32 430.991 613.04 429.791 613.568C428.615 614.072 427.235 614.324 425.651 614.324ZM440.192 591.68C439.304 591.68 438.56 591.404 437.96 590.852C437.384 590.276 437.096 589.568 437.096 588.728C437.096 587.888 437.384 587.192 437.96 586.64C438.56 586.064 439.304 585.776 440.192 585.776C441.08 585.776 441.812 586.064 442.388 586.64C442.988 587.192 443.288 587.888 443.288 588.728C443.288 589.568 442.988 590.276 442.388 590.852C441.812 591.404 441.08 591.68 440.192 591.68ZM442.676 594.056V614H437.636V594.056H442.676ZM452.696 596.972C453.344 596.012 454.232 595.232 455.36 594.632C456.512 594.032 457.82 593.732 459.284 593.732C460.988 593.732 462.524 594.152 463.892 594.992C465.284 595.832 466.376 597.032 467.168 598.592C467.984 600.128 468.392 601.916 468.392 603.956C468.392 605.996 467.984 607.808 467.168 609.392C466.376 610.952 465.284 612.164 463.892 613.028C462.524 613.892 460.988 614.324 459.284 614.324C457.796 614.324 456.488 614.036 455.36 613.46C454.256 612.86 453.368 612.092 452.696 611.156V614H447.656V587.36H452.696V596.972ZM463.244 603.956C463.244 602.756 462.992 601.724 462.488 600.86C462.008 599.972 461.36 599.3 460.544 598.844C459.752 598.388 458.888 598.16 457.952 598.16C457.04 598.16 456.176 598.4 455.36 598.88C454.568 599.336 453.92 600.008 453.416 600.896C452.936 601.784 452.696 602.828 452.696 604.028C452.696 605.228 452.936 606.272 453.416 607.16C453.92 608.048 454.568 608.732 455.36 609.212C456.176 609.668 457.04 609.896 457.952 609.896C458.888 609.896 459.752 609.656 460.544 609.176C461.36 608.696 462.008 608.012 462.488 607.124C462.992 606.236 463.244 605.18 463.244 603.956ZM474.61 591.68C473.722 591.68 472.978 591.404 472.378 590.852C471.802 590.276 471.514 589.568 471.514 588.728C471.514 587.888 471.802 587.192 472.378 586.64C472.978 586.064 473.722 585.776 474.61 585.776C475.498 585.776 476.23 586.064 476.806 586.64C477.406 587.192 477.706 587.888 477.706 588.728C477.706 589.568 477.406 590.276 476.806 590.852C476.23 591.404 475.498 591.68 474.61 591.68ZM477.094 594.056V614H472.054V594.056H477.094ZM487.113 587.36V614H482.073V587.36H487.113ZM494.649 591.68C493.761 591.68 493.017 591.404 492.417 590.852C491.841 590.276 491.553 589.568 491.553 588.728C491.553 587.888 491.841 587.192 492.417 586.64C493.017 586.064 493.761 585.776 494.649 585.776C495.537 585.776 496.269 586.064 496.845 586.64C497.445 587.192 497.745 587.888 497.745 588.728C497.745 589.568 497.445 590.276 496.845 590.852C496.269 591.404 495.537 591.68 494.649 591.68ZM497.133 594.056V614H492.093V594.056H497.133ZM507.981 598.196V607.844C507.981 608.516 508.137 609.008 508.449 609.32C508.785 609.608 509.337 609.752 510.105 609.752H512.445V614H509.277C505.029 614 502.905 611.936 502.905 607.808V598.196H500.529V594.056H502.905V589.124H507.981V594.056H512.445V598.196H507.981ZM535.15 594.056L522.802 623.432H517.438L521.758 613.496L513.766 594.056H519.418L524.566 607.988L529.786 594.056H535.15Z" fill="#5F6073"/>
<path d="M330.208 514.456V504.28H347.936V551H336.544V514.456H330.208ZM355.423 527C355.423 519.661 356.831 513.88 359.647 509.656C362.505 505.432 367.092 503.32 373.407 503.32C379.721 503.32 384.287 505.432 387.103 509.656C389.961 513.88 391.391 519.661 391.391 527C391.391 534.424 389.961 540.248 387.103 544.472C384.287 548.696 379.721 550.808 373.407 550.808C367.092 550.808 362.505 548.696 359.647 544.472C356.831 540.248 355.423 534.424 355.423 527ZM380.639 527C380.639 522.691 380.169 519.384 379.231 517.08C378.292 514.733 376.351 513.56 373.407 513.56C370.463 513.56 368.521 514.733 367.583 517.08C366.644 519.384 366.175 522.691 366.175 527C366.175 529.901 366.345 532.312 366.687 534.232C367.028 536.109 367.711 537.645 368.735 538.84C369.801 539.992 371.359 540.568 373.407 540.568C375.455 540.568 376.991 539.992 378.015 538.84C379.081 537.645 379.785 536.109 380.127 534.232C380.468 532.312 380.639 529.901 380.639 527ZM397.173 527C397.173 519.661 398.581 513.88 401.397 509.656C404.255 505.432 408.842 503.32 415.157 503.32C421.471 503.32 426.037 505.432 428.853 509.656C431.711 513.88 433.141 519.661 433.141 527C433.141 534.424 431.711 540.248 428.853 544.472C426.037 548.696 421.471 550.808 415.157 550.808C408.842 550.808 404.255 548.696 401.397 544.472C398.581 540.248 397.173 534.424 397.173 527ZM422.389 527C422.389 522.691 421.919 519.384 420.981 517.08C420.042 514.733 418.101 513.56 415.157 513.56C412.213 513.56 410.271 514.733 409.333 517.08C408.394 519.384 407.925 522.691 407.925 527C407.925 529.901 408.095 532.312 408.437 534.232C408.778 536.109 409.461 537.645 410.485 538.84C411.551 539.992 413.109 540.568 415.157 540.568C417.205 540.568 418.741 539.992 419.765 538.84C420.831 537.645 421.535 536.109 421.877 534.232C422.218 532.312 422.389 529.901 422.389 527ZM438.027 516.056C438.027 512.6 439.008 509.933 440.971 508.056C442.976 506.179 445.557 505.24 448.715 505.24C451.872 505.24 454.432 506.179 456.395 508.056C458.357 509.933 459.339 512.6 459.339 516.056C459.339 519.512 458.357 522.179 456.395 524.056C454.432 525.933 451.872 526.872 448.715 526.872C445.557 526.872 442.976 525.933 440.971 524.056C439.008 522.179 438.027 519.512 438.027 516.056ZM481.483 505.944L456.843 551H446.283L470.923 505.944H481.483ZM448.651 511.64C446.603 511.64 445.579 513.112 445.579 516.056C445.579 518.957 446.603 520.408 448.651 520.408C449.632 520.408 450.4 520.045 450.955 519.32C451.509 518.595 451.787 517.507 451.787 516.056C451.787 513.112 450.741 511.64 448.651 511.64ZM468.491 540.888C468.491 537.432 469.472 534.765 471.435 532.888C473.397 531.011 475.957 530.072 479.115 530.072C482.272 530.072 484.832 531.011 486.795 532.888C488.757 534.765 489.739 537.432 489.739 540.888C489.739 544.344 488.757 547.011 486.795 548.888C484.832 550.765 482.272 551.704 479.115 551.704C475.957 551.704 473.397 550.765 471.435 548.888C469.472 547.011 468.491 544.344 468.491 540.888ZM479.051 536.472C478.069 536.472 477.301 536.835 476.747 537.56C476.235 538.285 475.979 539.395 475.979 540.888C475.979 543.789 477.003 545.24 479.051 545.24C480.032 545.24 480.8 544.877 481.355 544.152C481.909 543.427 482.187 542.339 482.187 540.888C482.187 539.437 481.909 538.349 481.355 537.624C480.8 536.856 480.032 536.472 479.051 536.472Z" fill="#1B1C37"/>
<path opacity="0.4" d="M434.147 372H380.813C373.436 372 367.48 377.911 367.48 385.2V433.689C367.48 440.978 373.436 446.889 380.813 446.889H384.191C387.747 446.889 391.125 448.267 393.613 450.756L401.213 458.267C404.68 461.689 410.325 461.689 413.791 458.267L421.391 450.756C423.88 448.267 427.302 446.889 430.813 446.889H434.147C441.525 446.889 447.48 440.978 447.48 433.689V385.2C447.48 377.911 441.525 372 434.147 372Z" fill="url(#paint0_linear_16_203)"/>
<path d="M452.959 447.811L444.847 449.728C443.028 450.171 441.602 451.547 441.208 453.367L439.488 460.594C438.553 464.527 433.538 465.757 430.933 462.659L416.232 445.746C415.052 444.369 415.691 442.206 417.461 441.763C426.163 439.649 433.981 434.782 439.733 427.849C440.668 426.718 442.339 426.571 443.372 427.603L454.287 438.518C458.023 442.255 456.696 446.926 452.959 447.811Z" fill="url(#paint1_linear_16_203)"/>
<path d="M361.755 447.811L369.868 449.728C371.687 450.171 373.113 451.547 373.506 453.367L375.227 460.594C376.161 464.527 381.176 465.757 383.782 462.659L398.483 445.746C399.663 444.369 399.024 442.206 397.254 441.763C388.551 439.649 380.734 434.782 374.981 427.849C374.047 426.718 372.375 426.571 371.343 427.603L360.428 438.518C356.691 442.255 358.019 446.926 361.755 447.811Z" fill="url(#paint2_linear_16_203)"/>
<path d="M407.48 366.833C388.453 366.833 373.063 382.222 373.063 401.25C373.063 408.379 375.178 414.918 378.816 420.376C384.126 428.242 392.533 433.798 402.318 435.224C403.989 435.519 405.71 435.667 407.48 435.667C409.25 435.667 410.971 435.519 412.643 435.224C422.427 433.798 430.834 428.242 436.144 420.376C439.783 414.918 441.897 408.379 441.897 401.25C441.897 382.222 426.508 366.833 407.48 366.833ZM422.525 400.168L418.444 404.249C417.756 404.937 417.363 406.265 417.608 407.248L418.788 412.312C419.723 416.295 417.608 417.868 414.068 415.754L409.152 412.853C408.267 412.312 406.792 412.312 405.907 412.853L400.99 415.754C397.45 417.819 395.336 416.295 396.27 412.312L397.45 407.248C397.647 406.314 397.303 404.937 396.614 404.249L392.435 400.168C390.026 397.759 390.813 395.35 394.156 394.809L399.417 393.924C400.302 393.777 401.334 392.99 401.728 392.203L404.628 386.402C406.202 383.255 408.758 383.255 410.332 386.402L413.233 392.203C413.626 392.99 414.658 393.777 415.593 393.924L420.853 394.809C424.148 395.35 424.934 397.759 422.525 400.168Z" fill="url(#paint3_linear_16_203)"/>
<path d="M1066.29 596.648C1066.29 597.992 1065.96 599.252 1065.32 600.428C1064.69 601.604 1063.7 602.552 1062.33 603.272C1060.98 603.992 1059.28 604.352 1057.22 604.352H1053V614H1047.96V588.872H1057.22C1059.16 588.872 1060.82 589.208 1062.18 589.88C1063.55 590.552 1064.57 591.476 1065.24 592.652C1065.94 593.828 1066.29 595.16 1066.29 596.648ZM1057 600.284C1058.39 600.284 1059.42 599.972 1060.1 599.348C1060.77 598.7 1061.1 597.8 1061.1 596.648C1061.1 594.2 1059.74 592.976 1057 592.976H1053V600.284H1057ZM1088.69 594.056V614H1083.62V611.48C1082.97 612.344 1082.12 613.028 1081.06 613.532C1080.03 614.012 1078.9 614.252 1077.68 614.252C1076.12 614.252 1074.74 613.928 1073.54 613.28C1072.34 612.608 1071.39 611.636 1070.69 610.364C1070.02 609.068 1069.69 607.532 1069.69 605.756V594.056H1074.73V605.036C1074.73 606.62 1075.12 607.844 1075.91 608.708C1076.71 609.548 1077.79 609.968 1079.15 609.968C1080.55 609.968 1081.64 609.548 1082.43 608.708C1083.22 607.844 1083.62 606.62 1083.62 605.036V594.056H1088.69ZM1104.72 593.768C1107.1 593.768 1109.02 594.524 1110.48 596.036C1111.94 597.524 1112.68 599.612 1112.68 602.3V614H1107.64V602.984C1107.64 601.4 1107.24 600.188 1106.45 599.348C1105.66 598.484 1104.58 598.052 1103.21 598.052C1101.82 598.052 1100.71 598.484 1099.9 599.348C1099.1 600.188 1098.71 601.4 1098.71 602.984V614H1093.67V594.056H1098.71V596.54C1099.38 595.676 1100.23 595.004 1101.26 594.524C1102.32 594.02 1103.47 593.768 1104.72 593.768ZM1123.34 598.196V607.844C1123.34 608.516 1123.49 609.008 1123.8 609.32C1124.14 609.608 1124.69 609.752 1125.46 609.752H1127.8V614H1124.63C1120.38 614 1118.26 611.936 1118.26 607.808V598.196H1115.88V594.056H1118.26V589.124H1123.34V594.056H1127.8V598.196H1123.34ZM1150.25 594.056V614H1145.18V611.48C1144.53 612.344 1143.68 613.028 1142.62 613.532C1141.59 614.012 1140.46 614.252 1139.24 614.252C1137.68 614.252 1136.3 613.928 1135.1 613.28C1133.9 612.608 1132.95 611.636 1132.25 610.364C1131.58 609.068 1131.25 607.532 1131.25 605.756V594.056H1136.29V605.036C1136.29 606.62 1136.68 607.844 1137.47 608.708C1138.27 609.548 1139.35 609.968 1140.71 609.968C1142.11 609.968 1143.2 609.548 1143.99 608.708C1144.78 607.844 1145.18 606.62 1145.18 605.036V594.056H1150.25ZM1153.93 603.956C1153.93 601.94 1154.33 600.152 1155.12 598.592C1155.93 597.032 1157.03 595.832 1158.39 594.992C1159.79 594.152 1161.33 593.732 1163.04 593.732C1164.53 593.732 1165.82 594.032 1166.93 594.632C1168.05 595.232 1168.95 595.988 1169.63 596.9V594.056H1174.7V614H1169.63V611.084C1168.98 612.02 1168.08 612.8 1166.93 613.424C1165.8 614.024 1164.49 614.324 1163 614.324C1161.32 614.324 1159.79 613.892 1158.39 613.028C1157.03 612.164 1155.93 610.952 1155.12 609.392C1154.33 607.808 1153.93 605.996 1153.93 603.956ZM1169.63 604.028C1169.63 602.804 1169.39 601.76 1168.91 600.896C1168.43 600.008 1167.78 599.336 1166.96 598.88C1166.15 598.4 1165.27 598.16 1164.33 598.16C1163.4 598.16 1162.53 598.388 1161.74 598.844C1160.95 599.3 1160.3 599.972 1159.8 600.86C1159.32 601.724 1159.08 602.756 1159.08 603.956C1159.08 605.156 1159.32 606.212 1159.8 607.124C1160.3 608.012 1160.95 608.696 1161.74 609.176C1162.56 609.656 1163.42 609.896 1164.33 609.896C1165.27 609.896 1166.15 609.668 1166.96 609.212C1167.78 608.732 1168.43 608.06 1168.91 607.196C1169.39 606.308 1169.63 605.252 1169.63 604.028ZM1184.66 587.36V614H1179.62V587.36H1184.66ZM1192.2 591.68C1191.31 591.68 1190.57 591.404 1189.97 590.852C1189.39 590.276 1189.1 589.568 1189.1 588.728C1189.1 587.888 1189.39 587.192 1189.97 586.64C1190.57 586.064 1191.31 585.776 1192.2 585.776C1193.09 585.776 1193.82 586.064 1194.4 586.64C1195 587.192 1195.3 587.888 1195.3 588.728C1195.3 589.568 1195 590.276 1194.4 590.852C1193.82 591.404 1193.09 591.68 1192.2 591.68ZM1194.68 594.056V614H1189.64V594.056H1194.68ZM1205.53 598.196V607.844C1205.53 608.516 1205.69 609.008 1206 609.32C1206.34 609.608 1206.89 609.752 1207.66 609.752H1210V614H1206.83C1202.58 614 1200.46 611.936 1200.46 607.808V598.196H1198.08V594.056H1200.46V589.124H1205.53V594.056H1210V598.196H1205.53ZM1232.7 594.056L1220.35 623.432H1214.99L1219.31 613.496L1211.32 594.056H1216.97L1222.12 607.988L1227.34 594.056H1232.7Z" fill="#5F6073"/>
<path d="M1062.21 514.456V504.28H1079.94V551H1068.54V514.456H1062.21ZM1087.42 527C1087.42 519.661 1088.83 513.88 1091.65 509.656C1094.51 505.432 1099.09 503.32 1105.41 503.32C1111.72 503.32 1116.29 505.432 1119.1 509.656C1121.96 513.88 1123.39 519.661 1123.39 527C1123.39 534.424 1121.96 540.248 1119.1 544.472C1116.29 548.696 1111.72 550.808 1105.41 550.808C1099.09 550.808 1094.51 548.696 1091.65 544.472C1088.83 540.248 1087.42 534.424 1087.42 527ZM1112.64 527C1112.64 522.691 1112.17 519.384 1111.23 517.08C1110.29 514.733 1108.35 513.56 1105.41 513.56C1102.46 513.56 1100.52 514.733 1099.58 517.08C1098.64 519.384 1098.17 522.691 1098.17 527C1098.17 529.901 1098.35 532.312 1098.69 534.232C1099.03 536.109 1099.71 537.645 1100.73 538.84C1101.8 539.992 1103.36 540.568 1105.41 540.568C1107.45 540.568 1108.99 539.992 1110.01 538.84C1111.08 537.645 1111.79 536.109 1112.13 534.232C1112.47 532.312 1112.64 529.901 1112.64 527ZM1129.17 527C1129.17 519.661 1130.58 513.88 1133.4 509.656C1136.26 505.432 1140.84 503.32 1147.16 503.32C1153.47 503.32 1158.04 505.432 1160.85 509.656C1163.71 513.88 1165.14 519.661 1165.14 527C1165.14 534.424 1163.71 540.248 1160.85 544.472C1158.04 548.696 1153.47 550.808 1147.16 550.808C1140.84 550.808 1136.26 548.696 1133.4 544.472C1130.58 540.248 1129.17 534.424 1129.17 527ZM1154.39 527C1154.39 522.691 1153.92 519.384 1152.98 517.08C1152.04 514.733 1150.1 513.56 1147.16 513.56C1144.21 513.56 1142.27 514.733 1141.33 517.08C1140.39 519.384 1139.92 522.691 1139.92 527C1139.92 529.901 1140.1 532.312 1140.44 534.232C1140.78 536.109 1141.46 537.645 1142.48 538.84C1143.55 539.992 1145.11 540.568 1147.16 540.568C1149.2 540.568 1150.74 539.992 1151.76 538.84C1152.83 537.645 1153.54 536.109 1153.88 534.232C1154.22 532.312 1154.39 529.901 1154.39 527ZM1170.03 516.056C1170.03 512.6 1171.01 509.933 1172.97 508.056C1174.98 506.179 1177.56 505.24 1180.71 505.24C1183.87 505.24 1186.43 506.179 1188.39 508.056C1190.36 509.933 1191.34 512.6 1191.34 516.056C1191.34 519.512 1190.36 522.179 1188.39 524.056C1186.43 525.933 1183.87 526.872 1180.71 526.872C1177.56 526.872 1174.98 525.933 1172.97 524.056C1171.01 522.179 1170.03 519.512 1170.03 516.056ZM1213.48 505.944L1188.84 551H1178.28L1202.92 505.944H1213.48ZM1180.65 511.64C1178.6 511.64 1177.58 513.112 1177.58 516.056C1177.58 518.957 1178.6 520.408 1180.65 520.408C1181.63 520.408 1182.4 520.045 1182.95 519.32C1183.51 518.595 1183.79 517.507 1183.79 516.056C1183.79 513.112 1182.74 511.64 1180.65 511.64ZM1200.49 540.888C1200.49 537.432 1201.47 534.765 1203.43 532.888C1205.4 531.011 1207.96 530.072 1211.11 530.072C1214.27 530.072 1216.83 531.011 1218.79 532.888C1220.76 534.765 1221.74 537.432 1221.74 540.888C1221.74 544.344 1220.76 547.011 1218.79 548.888C1216.83 550.765 1214.27 551.704 1211.11 551.704C1207.96 551.704 1205.4 550.765 1203.43 548.888C1201.47 547.011 1200.49 544.344 1200.49 540.888ZM1211.05 536.472C1210.07 536.472 1209.3 536.835 1208.75 537.56C1208.23 538.285 1207.98 539.395 1207.98 540.888C1207.98 543.789 1209 545.24 1211.05 545.24C1212.03 545.24 1212.8 544.877 1213.35 544.152C1213.91 543.427 1214.19 542.339 1214.19 540.888C1214.19 539.437 1213.91 538.349 1213.35 537.624C1212.8 536.856 1212.03 536.472 1211.05 536.472Z" fill="#1B1C37"/>
<path opacity="0.4" d="M1166.15 372H1112.81C1105.44 372 1099.48 377.911 1099.48 385.2V433.689C1099.48 440.978 1105.44 446.889 1112.81 446.889H1116.19C1119.75 446.889 1123.12 448.267 1125.61 450.756L1133.21 458.267C1136.68 461.689 1142.32 461.689 1145.79 458.267L1153.39 450.756C1155.88 448.267 1159.3 446.889 1162.81 446.889H1166.15C1173.52 446.889 1179.48 440.978 1179.48 433.689V385.2C1179.48 377.911 1173.52 372 1166.15 372Z" fill="url(#paint4_linear_16_203)"/>
<path d="M1162.83 374.503V366.833C1162.83 364.817 1161.16 363.146 1159.15 363.146C1157.13 363.146 1155.46 364.817 1155.46 366.833V374.208H1123.5V366.833C1123.5 364.817 1121.83 363.146 1119.81 363.146C1117.8 363.146 1116.13 364.817 1116.13 366.833V374.503C1102.85 375.732 1096.41 383.648 1095.43 395.399C1095.33 396.825 1096.51 398.005 1097.89 398.005H1181.08C1182.5 398.005 1183.68 396.776 1183.53 395.399C1182.55 383.648 1176.11 375.732 1162.83 374.503Z" fill="url(#paint5_linear_16_203)"/>
<path d="M1173.9 430.75C1163.03 430.75 1154.23 439.551 1154.23 450.417C1154.23 454.104 1155.26 457.595 1157.08 460.545C1160.47 466.248 1166.72 470.083 1173.9 470.083C1181.08 470.083 1187.32 466.248 1190.71 460.545C1192.53 457.595 1193.56 454.104 1193.56 450.417C1193.56 439.551 1184.76 430.75 1173.9 430.75ZM1184.07 448.302L1173.6 457.988C1172.91 458.628 1171.98 458.972 1171.09 458.972C1170.16 458.972 1169.23 458.628 1168.49 457.89L1163.62 453.023C1162.2 451.597 1162.2 449.237 1163.62 447.811C1165.05 446.385 1167.41 446.385 1168.83 447.811L1171.19 450.171L1179.06 442.894C1180.53 441.517 1182.89 441.616 1184.27 443.091C1185.65 444.566 1185.55 446.877 1184.07 448.302Z" fill="url(#paint6_linear_16_203)"/>
<path d="M1178.81 405.38H1100.15C1097.44 405.38 1095.23 407.592 1095.23 410.296V440.583C1095.23 455.333 1102.61 465.166 1119.81 465.166H1144.05C1147.45 465.166 1149.81 461.872 1148.72 458.676C1147.74 455.825 1146.9 452.678 1146.9 450.416C1146.9 435.519 1159.05 423.375 1173.95 423.375C1175.37 423.375 1176.8 423.473 1178.17 423.719C1181.12 424.161 1183.78 421.851 1183.78 418.901V410.346C1183.73 407.592 1181.52 405.38 1178.81 405.38ZM1125.76 446.532C1124.83 447.417 1123.55 447.958 1122.27 447.958C1120.99 447.958 1119.72 447.417 1118.78 446.532C1117.9 445.598 1117.36 444.32 1117.36 443.041C1117.36 441.763 1117.9 440.485 1118.78 439.551C1119.27 439.108 1119.76 438.764 1120.4 438.518C1122.22 437.731 1124.39 438.174 1125.76 439.551C1126.65 440.485 1127.19 441.763 1127.19 443.041C1127.19 444.32 1126.65 445.598 1125.76 446.532ZM1125.76 429.324C1125.52 429.521 1125.27 429.717 1125.03 429.914C1124.73 430.111 1124.44 430.258 1124.14 430.356C1123.85 430.504 1123.55 430.602 1123.26 430.651C1122.91 430.701 1122.57 430.75 1122.27 430.75C1120.99 430.75 1119.72 430.209 1118.78 429.324C1117.9 428.39 1117.36 427.111 1117.36 425.833C1117.36 424.555 1117.9 423.276 1118.78 422.342C1119.91 421.211 1121.63 420.671 1123.26 421.015C1123.55 421.064 1123.85 421.162 1124.14 421.31C1124.44 421.408 1124.73 421.556 1125.03 421.752C1125.27 421.949 1125.52 422.146 1125.76 422.342C1126.65 423.276 1127.19 424.555 1127.19 425.833C1127.19 427.111 1126.65 428.39 1125.76 429.324ZM1142.97 429.324C1142.04 430.209 1140.76 430.75 1139.48 430.75C1138.2 430.75 1136.92 430.209 1135.99 429.324C1135.1 428.39 1134.56 427.111 1134.56 425.833C1134.56 424.555 1135.1 423.276 1135.99 422.342C1137.86 420.523 1141.15 420.523 1142.97 422.342C1143.86 423.276 1144.4 424.555 1144.4 425.833C1144.4 427.111 1143.86 428.39 1142.97 429.324Z" fill="url(#paint7_linear_16_203)"/>
</g>
<g filter="url(#filter1_d_16_203)">
<rect x="594" y="171" width="323.948" height="443" rx="60" fill="url(#paint8_linear_16_203)" shape-rendering="crispEdges"/>
<path d="M655.234 475.4C655.234 472.928 655.786 470.72 656.89 468.776C658.018 466.808 659.542 465.284 661.462 464.204C663.406 463.1 665.578 462.548 667.978 462.548C670.786 462.548 673.246 463.268 675.358 464.708C677.47 466.148 678.946 468.14 679.786 470.684H673.99C673.414 469.484 672.598 468.584 671.542 467.984C670.51 467.384 669.31 467.084 667.942 467.084C666.478 467.084 665.17 467.432 664.018 468.128C662.89 468.8 662.002 469.76 661.354 471.008C660.73 472.256 660.418 473.72 660.418 475.4C660.418 477.056 660.73 478.52 661.354 479.792C662.002 481.04 662.89 482.012 664.018 482.708C665.17 483.38 666.478 483.716 667.942 483.716C669.31 483.716 670.51 483.416 671.542 482.816C672.598 482.192 673.414 481.28 673.99 480.08H679.786C678.946 482.648 677.47 484.652 675.358 486.092C673.27 487.508 670.81 488.216 667.978 488.216C665.578 488.216 663.406 487.676 661.462 486.596C659.542 485.492 658.018 483.968 656.89 482.024C655.786 480.08 655.234 477.872 655.234 475.4ZM692.947 488.324C691.027 488.324 689.299 487.904 687.763 487.064C686.227 486.2 685.015 484.988 684.127 483.428C683.263 481.868 682.831 480.068 682.831 478.028C682.831 475.988 683.275 474.188 684.163 472.628C685.075 471.068 686.311 469.868 687.871 469.028C689.431 468.164 691.171 467.732 693.091 467.732C695.011 467.732 696.751 468.164 698.311 469.028C699.871 469.868 701.095 471.068 701.983 472.628C702.895 474.188 703.351 475.988 703.351 478.028C703.351 480.068 702.883 481.868 701.947 483.428C701.035 484.988 699.787 486.2 698.203 487.064C696.643 487.904 694.891 488.324 692.947 488.324ZM692.947 483.932C693.859 483.932 694.711 483.716 695.503 483.284C696.319 482.828 696.967 482.156 697.447 481.268C697.927 480.38 698.167 479.3 698.167 478.028C698.167 476.132 697.663 474.68 696.655 473.672C695.671 472.64 694.459 472.124 693.019 472.124C691.579 472.124 690.367 472.64 689.383 473.672C688.423 474.68 687.943 476.132 687.943 478.028C687.943 479.924 688.411 481.388 689.347 482.42C690.307 483.428 691.507 483.932 692.947 483.932ZM712.088 461.36V488H707.048V461.36H712.088ZM725.924 488.324C724.004 488.324 722.276 487.904 720.74 487.064C719.204 486.2 717.992 484.988 717.104 483.428C716.24 481.868 715.808 480.068 715.808 478.028C715.808 475.988 716.252 474.188 717.14 472.628C718.052 471.068 719.288 469.868 720.848 469.028C722.408 468.164 724.148 467.732 726.068 467.732C727.988 467.732 729.728 468.164 731.288 469.028C732.848 469.868 734.072 471.068 734.96 472.628C735.872 474.188 736.328 475.988 736.328 478.028C736.328 480.068 735.86 481.868 734.924 483.428C734.012 484.988 732.764 486.2 731.18 487.064C729.62 487.904 727.868 488.324 725.924 488.324ZM725.924 483.932C726.836 483.932 727.688 483.716 728.48 483.284C729.296 482.828 729.944 482.156 730.424 481.268C730.904 480.38 731.144 479.3 731.144 478.028C731.144 476.132 730.64 474.68 729.632 473.672C728.648 472.64 727.436 472.124 725.996 472.124C724.556 472.124 723.344 472.64 722.36 473.672C721.4 474.68 720.92 476.132 720.92 478.028C720.92 479.924 721.388 481.388 722.324 482.42C723.284 483.428 724.484 483.932 725.924 483.932ZM764.793 467.768C767.241 467.768 769.209 468.524 770.697 470.036C772.209 471.524 772.965 473.612 772.965 476.3V488H767.925V476.984C767.925 475.424 767.529 474.236 766.737 473.42C765.945 472.58 764.865 472.16 763.497 472.16C762.129 472.16 761.037 472.58 760.221 473.42C759.429 474.236 759.033 475.424 759.033 476.984V488H753.993V476.984C753.993 475.424 753.597 474.236 752.805 473.42C752.013 472.58 750.933 472.16 749.565 472.16C748.173 472.16 747.069 472.58 746.253 473.42C745.461 474.236 745.065 475.424 745.065 476.984V488H740.025V468.056H745.065V470.468C745.713 469.628 746.541 468.968 747.549 468.488C748.581 468.008 749.709 467.768 750.933 467.768C752.493 467.768 753.885 468.104 755.109 468.776C756.333 469.424 757.281 470.36 757.953 471.584C758.601 470.432 759.537 469.508 760.761 468.812C762.009 468.116 763.353 467.768 764.793 467.768ZM782.787 470.972C783.435 470.012 784.323 469.232 785.451 468.632C786.603 468.032 787.911 467.732 789.375 467.732C791.079 467.732 792.615 468.152 793.983 468.992C795.375 469.832 796.467 471.032 797.259 472.592C798.075 474.128 798.483 475.916 798.483 477.956C798.483 479.996 798.075 481.808 797.259 483.392C796.467 484.952 795.375 486.164 793.983 487.028C792.615 487.892 791.079 488.324 789.375 488.324C787.887 488.324 786.579 488.036 785.451 487.46C784.347 486.86 783.459 486.092 782.787 485.156V488H777.747V461.36H782.787V470.972ZM793.335 477.956C793.335 476.756 793.083 475.724 792.579 474.86C792.099 473.972 791.451 473.3 790.635 472.844C789.843 472.388 788.979 472.16 788.043 472.16C787.131 472.16 786.267 472.4 785.451 472.88C784.659 473.336 784.011 474.008 783.507 474.896C783.027 475.784 782.787 476.828 782.787 478.028C782.787 479.228 783.027 480.272 783.507 481.16C784.011 482.048 784.659 482.732 785.451 483.212C786.267 483.668 787.131 483.896 788.043 483.896C788.979 483.896 789.843 483.656 790.635 483.176C791.451 482.696 792.099 482.012 792.579 481.124C793.083 480.236 793.335 479.18 793.335 477.956ZM804.702 465.68C803.814 465.68 803.07 465.404 802.47 464.852C801.894 464.276 801.606 463.568 801.606 462.728C801.606 461.888 801.894 461.192 802.47 460.64C803.07 460.064 803.814 459.776 804.702 459.776C805.59 459.776 806.322 460.064 806.898 460.64C807.498 461.192 807.798 461.888 807.798 462.728C807.798 463.568 807.498 464.276 806.898 464.852C806.322 465.404 805.59 465.68 804.702 465.68ZM807.186 468.056V488H802.146V468.056H807.186ZM810.869 477.956C810.869 475.94 811.265 474.152 812.057 472.592C812.873 471.032 813.965 469.832 815.333 468.992C816.725 468.152 818.273 467.732 819.977 467.732C821.465 467.732 822.761 468.032 823.865 468.632C824.993 469.232 825.893 469.988 826.565 470.9V468.056H831.641V488H826.565V485.084C825.917 486.02 825.017 486.8 823.865 487.424C822.737 488.024 821.429 488.324 819.941 488.324C818.261 488.324 816.725 487.892 815.333 487.028C813.965 486.164 812.873 484.952 812.057 483.392C811.265 481.808 810.869 479.996 810.869 477.956ZM826.565 478.028C826.565 476.804 826.325 475.76 825.845 474.896C825.365 474.008 824.717 473.336 823.901 472.88C823.085 472.4 822.209 472.16 821.273 472.16C820.337 472.16 819.473 472.388 818.681 472.844C817.889 473.3 817.241 473.972 816.737 474.86C816.257 475.724 816.017 476.756 816.017 477.956C816.017 479.156 816.257 480.212 816.737 481.124C817.241 482.012 817.889 482.696 818.681 483.176C819.497 483.656 820.361 483.896 821.273 483.896C822.209 483.896 823.085 483.668 823.901 483.212C824.717 482.732 825.365 482.06 825.845 481.196C826.325 480.308 826.565 479.252 826.565 478.028ZM847.616 467.768C849.992 467.768 851.912 468.524 853.376 470.036C854.84 471.524 855.572 473.612 855.572 476.3V488H850.532V476.984C850.532 475.4 850.136 474.188 849.344 473.348C848.552 472.484 847.472 472.052 846.104 472.052C844.712 472.052 843.608 472.484 842.792 473.348C842 474.188 841.604 475.4 841.604 476.984V488H836.564V468.056H841.604V470.54C842.276 469.676 843.128 469.004 844.16 468.524C845.216 468.02 846.368 467.768 847.616 467.768Z" fill="#EDEEFF"/>
<path d="M678.702 388.456V378.28H696.43V425H685.038V388.456H678.702ZM703.917 401C703.917 393.661 705.325 387.88 708.141 383.656C710.999 379.432 715.586 377.32 721.901 377.32C728.215 377.32 732.781 379.432 735.597 383.656C738.455 387.88 739.885 393.661 739.885 401C739.885 408.424 738.455 414.248 735.597 418.472C732.781 422.696 728.215 424.808 721.901 424.808C715.586 424.808 710.999 422.696 708.141 418.472C705.325 414.248 703.917 408.424 703.917 401ZM729.133 401C729.133 396.691 728.663 393.384 727.725 391.08C726.786 388.733 724.845 387.56 721.901 387.56C718.957 387.56 717.015 388.733 716.077 391.08C715.138 393.384 714.669 396.691 714.669 401C714.669 403.901 714.839 406.312 715.181 408.232C715.522 410.109 716.205 411.645 717.229 412.84C718.295 413.992 719.853 414.568 721.901 414.568C723.949 414.568 725.485 413.992 726.509 412.84C727.575 411.645 728.279 410.109 728.621 408.232C728.962 406.312 729.133 403.901 729.133 401ZM745.667 401C745.667 393.661 747.075 387.88 749.891 383.656C752.749 379.432 757.336 377.32 763.651 377.32C769.965 377.32 774.531 379.432 777.347 383.656C780.205 387.88 781.635 393.661 781.635 401C781.635 408.424 780.205 414.248 777.347 418.472C774.531 422.696 769.965 424.808 763.651 424.808C757.336 424.808 752.749 422.696 749.891 418.472C747.075 414.248 745.667 408.424 745.667 401ZM770.883 401C770.883 396.691 770.413 393.384 769.475 391.08C768.536 388.733 766.595 387.56 763.651 387.56C760.707 387.56 758.765 388.733 757.827 391.08C756.888 393.384 756.419 396.691 756.419 401C756.419 403.901 756.589 406.312 756.931 408.232C757.272 410.109 757.955 411.645 758.979 412.84C760.045 413.992 761.603 414.568 763.651 414.568C765.699 414.568 767.235 413.992 768.259 412.84C769.325 411.645 770.029 410.109 770.371 408.232C770.712 406.312 770.883 403.901 770.883 401ZM786.521 390.056C786.521 386.6 787.502 383.933 789.465 382.056C791.47 380.179 794.051 379.24 797.209 379.24C800.366 379.24 802.926 380.179 804.889 382.056C806.851 383.933 807.833 386.6 807.833 390.056C807.833 393.512 806.851 396.179 804.889 398.056C802.926 399.933 800.366 400.872 797.209 400.872C794.051 400.872 791.47 399.933 789.465 398.056C787.502 396.179 786.521 393.512 786.521 390.056ZM829.977 379.944L805.337 425H794.777L819.417 379.944H829.977ZM797.145 385.64C795.097 385.64 794.073 387.112 794.073 390.056C794.073 392.957 795.097 394.408 797.145 394.408C798.126 394.408 798.894 394.045 799.449 393.32C800.003 392.595 800.281 391.507 800.281 390.056C800.281 387.112 799.235 385.64 797.145 385.64ZM816.985 414.888C816.985 411.432 817.966 408.765 819.929 406.888C821.891 405.011 824.451 404.072 827.609 404.072C830.766 404.072 833.326 405.011 835.289 406.888C837.251 408.765 838.233 411.432 838.233 414.888C838.233 418.344 837.251 421.011 835.289 422.888C833.326 424.765 830.766 425.704 827.609 425.704C824.451 425.704 821.891 424.765 819.929 422.888C817.966 421.011 816.985 418.344 816.985 414.888ZM827.545 410.472C826.563 410.472 825.795 410.835 825.241 411.56C824.729 412.285 824.473 413.395 824.473 414.888C824.473 417.789 825.497 419.24 827.545 419.24C828.526 419.24 829.294 418.877 829.849 418.152C830.403 417.427 830.681 416.339 830.681 414.888C830.681 413.437 830.403 412.349 829.849 411.624C829.294 410.856 828.526 410.472 827.545 410.472Z" fill="white"/>
<path opacity="0.4" d="M782.641 246H729.308C721.93 246 715.974 251.911 715.974 259.2V307.689C715.974 314.978 721.93 320.889 729.308 320.889H732.685C736.241 320.889 739.619 322.267 742.108 324.756L749.708 332.267C753.174 335.689 758.819 335.689 762.285 332.267L769.885 324.756C772.374 322.267 775.797 320.889 779.308 320.889H782.641C790.019 320.889 795.974 314.978 795.974 307.689V259.2C795.974 251.911 790.019 246 782.641 246Z" fill="url(#paint9_linear_16_203)"/>
<path d="M801.453 321.811L793.341 323.728C791.522 324.171 790.096 325.547 789.703 327.367L787.982 334.594C787.048 338.527 782.033 339.757 779.427 336.659L764.726 319.746C763.546 318.369 764.185 316.206 765.955 315.763C774.658 313.649 782.475 308.782 788.228 301.849C789.162 300.718 790.833 300.571 791.866 301.603L802.781 312.518C806.518 316.255 805.19 320.926 801.453 321.811Z" fill="url(#paint10_linear_16_203)"/>
<path d="M710.25 321.811L718.362 323.728C720.181 324.171 721.607 325.547 722 327.367L723.721 334.594C724.655 338.527 729.67 339.757 732.276 336.659L746.977 319.746C748.157 318.369 747.518 316.206 745.748 315.763C737.045 313.649 729.228 308.782 723.475 301.849C722.541 300.718 720.87 300.571 719.837 301.603L708.922 312.518C705.185 316.255 706.513 320.926 710.25 321.811Z" fill="url(#paint11_linear_16_203)"/>
<path d="M755.974 240.833C736.947 240.833 721.558 256.223 721.558 275.25C721.558 282.379 723.672 288.918 727.31 294.376C732.62 302.243 741.028 307.798 750.812 309.224C752.483 309.519 754.204 309.667 755.974 309.667C757.744 309.667 759.465 309.519 761.137 309.224C770.921 307.798 779.328 302.243 784.638 294.376C788.277 288.918 790.391 282.379 790.391 275.25C790.391 256.223 775.002 240.833 755.974 240.833ZM771.019 274.168L766.938 278.249C766.25 278.938 765.857 280.265 766.103 281.248L767.283 286.313C768.217 290.295 766.103 291.868 762.563 289.754L757.646 286.853C756.761 286.313 755.286 286.313 754.401 286.853L749.484 289.754C745.944 291.819 743.83 290.295 744.764 286.313L745.944 281.248C746.141 280.314 745.797 278.938 745.108 278.249L740.929 274.168C738.52 271.759 739.307 269.35 742.65 268.809L747.911 267.924C748.796 267.777 749.828 266.99 750.222 266.203L753.123 260.402C754.696 257.255 757.253 257.255 758.826 260.402L761.727 266.203C762.12 266.99 763.153 267.777 764.087 267.924L769.348 268.809C772.642 269.35 773.428 271.759 771.019 274.168Z" fill="url(#paint12_linear_16_203)"/>
</g>
<mask id="mask0_16_203" style="mask-type:alpha" maskUnits="userSpaceOnUse" x="594" y="171" width="325" height="223">
<path d="M594 291C594 234.431 594 206.147 611.574 188.574C629.147 171 657.432 171 714 171H798C854.569 171 882.853 171 900.427 188.574C918 206.147 918 234.431 918 291V336C918 363.341 918 377.012 909.506 385.506C901.012 394 887.342 394 860 394H652C624.659 394 610.988 394 602.494 385.506C594 377.012 594 363.341 594 336V291Z" fill="#C4C4C4"/>
</mask>
<g mask="url(#mask0_16_203)">
<path d="M224.205 384.691C287.393 309.433 455.169 182.82 620.772 278.431C786.376 374.042 930.675 253.72 982.124 181.607C1037.46 113.034 1186.29 -2.08692 1338.88 86.0142" stroke="#F92323" stroke-width="70" stroke-linecap="round" stroke-linejoin="round"/>
<path d="M202.636 326.05C265.901 250.7 433.883 123.931 599.689 219.66C765.495 315.388 909.971 194.918 961.483 122.717C1016.89 54.06 1165.9 -61.202 1318.68 27.0071" stroke="#4E6AFF" stroke-width="70" stroke-linecap="round" stroke-linejoin="round"/>
<path d="M201.119 276.677C264.307 201.419 432.083 74.8058 597.687 170.417C763.29 266.028 907.589 145.706 959.038 73.593C1014.38 5.01988 1163.2 -110.101 1315.8 -22" stroke="#F9D423" stroke-width="70" stroke-linecap="round" stroke-linejoin="round"/>
</g>
<ellipse cx="1339.58" cy="744.212" rx="12.579" ry="12.2122" fill="#EDEEFF"/>
<ellipse cx="1383.43" cy="744.212" rx="12.579" ry="12.2122" fill="#EDEEFF"/>
<ellipse cx="1426.55" cy="744.212" rx="12.579" ry="12.2122" fill="#EDEEFF"/>
<ellipse cx="1471.12" cy="744.212" rx="12.579" ry="12.2122" fill="#EDEEFF"/>
<ellipse cx="1514.25" cy="744.212" rx="12.579" ry="12.2122" fill="#EDEEFF"/>
<ellipse cx="1339.58" cy="779.802" rx="12.579" ry="12.2122" fill="#EDEEFF"/>
<ellipse cx="1383.43" cy="779.802" rx="12.579" ry="12.2122" fill="#EDEEFF"/>
<ellipse cx="1426.55" cy="779.802" rx="12.579" ry="12.2122" fill="#EDEEFF"/>
<ellipse cx="1471.12" cy="779.802" rx="12.579" ry="12.2122" fill="#EDEEFF"/>
<ellipse cx="1514.25" cy="779.802" rx="12.579" ry="12.2122" fill="#EDEEFF"/>
<ellipse cx="1339.58" cy="815.392" rx="12.579" ry="12.2122" fill="#EDEEFF"/>
<ellipse cx="1383.43" cy="815.392" rx="12.579" ry="12.2122" fill="#EDEEFF"/>
<ellipse cx="1426.55" cy="815.392" rx="12.579" ry="12.2122" fill="#EDEEFF"/>
<ellipse cx="1471.12" cy="815.392" rx="12.579" ry="12.2122" fill="#EDEEFF"/>
<ellipse cx="1514.25" cy="815.392" rx="12.579" ry="12.2122" fill="#EDEEFF"/>
<defs>
<filter id="filter0_d_16_203" x="69.0002" y="229" width="1382.96" height="547" filterUnits="userSpaceOnUse" color-interpolation-filters="sRGB">
<feFlood flood-opacity="0" result="BackgroundImageFix"/>
<feColorMatrix in="SourceAlpha" type="matrix" values="0 0 0 0 0 0 0 0 0 0 0 0 0 0 0 0 0 0 127 0" result="hardAlpha"/>
<feOffset dx="4" dy="4"/>
<feGaussianBlur stdDeviation="46"/>
<feComposite in2="hardAlpha" operator="out"/>
<feColorMatrix type="matrix" values="0 0 0 0 0.458824 0 0 0 0 0.47451 0 0 0 0 1 0 0 0 0.18 0"/>
<feBlend mode="normal" in2="BackgroundImageFix" result="effect1_dropShadow_16_203"/>
<feBlend mode="normal" in="SourceGraphic" in2="effect1_dropShadow_16_203" result="shape"/>
</filter>
<filter id="filter1_d_16_203" x="459" y="0" width="673.948" height="793" filterUnits="userSpaceOnUse" color-interpolation-filters="sRGB">
<feFlood flood-opacity="0" result="BackgroundImageFix"/>
<feColorMatrix in="SourceAlpha" type="matrix" values="0 0 0 0 0 0 0 0 0 0 0 0 0 0 0 0 0 0 127 0" result="hardAlpha"/>
<feOffset dx="40" dy="4"/>
<feGaussianBlur stdDeviation="87.5"/>
<feComposite in2="hardAlpha" operator="out"/>
<feColorMatrix type="matrix" values="0 0 0 0 0.458824 0 0 0 0 0.47451 0 0 0 0 1 0 0 0 0.3 0"/>
<feBlend mode="normal" in2="BackgroundImageFix" result="effect1_dropShadow_16_203"/>
<feBlend mode="normal" in="SourceGraphic" in2="effect1_dropShadow_16_203" result="shape"/>
</filter>
<linearGradient id="paint0_linear_16_203" x1="367.48" y1="416.417" x2="447.48" y2="416.417" gradientUnits="userSpaceOnUse">
<stop stop-color="#B224EF"/>
<stop offset="1" stop-color="#7579FF"/>
</linearGradient>
<linearGradient id="paint1_linear_16_203" x1="415.632" y1="445.657" x2="456.512" y2="445.657" gradientUnits="userSpaceOnUse">
<stop stop-color="#B224EF"/>
<stop offset="1" stop-color="#7579FF"/>
</linearGradient>
<linearGradient id="paint2_linear_16_203" x1="358.202" y1="445.657" x2="399.083" y2="445.657" gradientUnits="userSpaceOnUse">
<stop stop-color="#B224EF"/>
<stop offset="1" stop-color="#7579FF"/>
</linearGradient>
<linearGradient id="paint3_linear_16_203" x1="373.063" y1="401.25" x2="441.897" y2="401.25" gradientUnits="userSpaceOnUse">
<stop stop-color="#B224EF"/>
<stop offset="1" stop-color="#7579FF"/>
</linearGradient>
<linearGradient id="paint4_linear_16_203" x1="1099.48" y1="416.417" x2="1179.48" y2="416.417" gradientUnits="userSpaceOnUse">
<stop stop-color="#B224EF"/>
<stop offset="1" stop-color="#7579FF"/>
</linearGradient>
<linearGradient id="paint5_linear_16_203" x1="1095.42" y1="380.575" x2="1183.55" y2="380.575" gradientUnits="userSpaceOnUse">
<stop stop-color="#B224EF"/>
<stop offset="1" stop-color="#7579FF"/>
</linearGradient>
<linearGradient id="paint6_linear_16_203" x1="1154.23" y1="450.417" x2="1193.56" y2="450.417" gradientUnits="userSpaceOnUse">
<stop stop-color="#B224EF"/>
<stop offset="1" stop-color="#7579FF"/>
</linearGradient>
<linearGradient id="paint7_linear_16_203" x1="1095.23" y1="435.273" x2="1183.78" y2="435.273" gradientUnits="userSpaceOnUse">
<stop stop-color="#B224EF"/>
<stop offset="1" stop-color="#7579FF"/>
</linearGradient>
<linearGradient id="paint8_linear_16_203" x1="594" y1="392.5" x2="917.948" y2="392.5" gradientUnits="userSpaceOnUse">
<stop stop-color="#B224EF"/>
<stop offset="1" stop-color="#7579FF"/>
</linearGradient>
<linearGradient id="paint9_linear_16_203" x1="715.974" y1="290.417" x2="795.974" y2="290.417" gradientUnits="userSpaceOnUse">
<stop stop-color="#B224EF"/>
<stop offset="1" stop-color="#7579FF"/>
</linearGradient>
<linearGradient id="paint10_linear_16_203" x1="764.126" y1="319.657" x2="805.006" y2="319.657" gradientUnits="userSpaceOnUse">
<stop stop-color="#B224EF"/>
<stop offset="1" stop-color="#7579FF"/>
</linearGradient>
<linearGradient id="paint11_linear_16_203" x1="706.697" y1="319.657" x2="747.577" y2="319.657" gradientUnits="userSpaceOnUse">
<stop stop-color="#B224EF"/>
<stop offset="1" stop-color="#7579FF"/>
</linearGradient>
<linearGradient id="paint12_linear_16_203" x1="721.558" y1="275.25" x2="790.391" y2="275.25" gradientUnits="userSpaceOnUse">
<stop stop-color="#B224EF"/>
<stop offset="1" stop-color="#7579FF"/>
</linearGradient>
</defs>
</svg>
